<?xml version="1.0" encoding="UTF-8" standalone="no"?>
<!-- Created with Inkscape (http://www.inkscape.org/) -->

<svg
   width="40mm"
   height="40mm"
   viewBox="0 0 40 39.999999"
   version="1.1"
   id="svg5"
   xml:space="preserve"
   inkscape:version="1.2.2 (732a01da63, 2022-12-09)"
   sodipodi:docname="picanteo.svg"
   xmlns:inkscape="http://www.inkscape.org/namespaces/inkscape"
   xmlns:sodipodi="http://sodipodi.sourceforge.net/DTD/sodipodi-0.dtd"
   xmlns:xlink="http://www.w3.org/1999/xlink"
   xmlns="http://www.w3.org/2000/svg"
   xmlns:svg="http://www.w3.org/2000/svg"><sodipodi:namedview
     id="namedview7"
     pagecolor="#ffffff"
     bordercolor="#000000"
     borderopacity="0.25"
     inkscape:showpageshadow="2"
     inkscape:pageopacity="0.0"
     inkscape:pagecheckerboard="0"
     inkscape:deskcolor="#d1d1d1"
     inkscape:document-units="mm"
     showgrid="false"
     inkscape:zoom="2.8083594"
     inkscape:cx="112.34317"
     inkscape:cy="31.513061"
     inkscape:window-width="1920"
     inkscape:window-height="1013"
     inkscape:window-x="-9"
     inkscape:window-y="-9"
     inkscape:window-maximized="1"
     inkscape:current-layer="layer1" /><defs
     id="defs2"><clipPath
       clipPathUnits="userSpaceOnUse"
       id="clipPath453"><use
         x="0"
         y="0"
         xlink:href="#g449"
         id="use455"
         transform="translate(38.438812,-2.3553194)" /></clipPath></defs><g
     inkscape:label="Calque 1"
     inkscape:groupmode="layer"
     id="layer1"
     transform="translate(-65.406459,-6.6154356)"><g
       id="g451"
       clip-path="url(#clipPath453)" /><g
       inkscape:label="Clip"
       id="g449"
       transform="translate(-38.438811,2.3553194)"><path
         style="fill:#f4620f;fill-opacity:1;stroke-width:0.165083"
         d="m 130.34582,14.693344 c -0.27851,-0.520412 -0.0609,-1.410139 0.52151,-2.132164 0.2744,-0.340181 0.64294,-0.938617 0.81898,-1.329858 0.36581,-0.813012 0.65053,-0.827567 0.8113,-0.04147 0.1607,0.785735 -0.0919,1.46901 -0.82466,2.230184 -0.48351,0.356562 -1.01712,1.850287 -1.32713,1.27331 z"
         id="path2210" /><path
         style="fill:#f4620f;fill-opacity:1;stroke-width:0.165083"
         d="m 132.49748,17.345102 c -0.28614,-0.534673 -0.22222,-1.073679 0.22769,-1.919848 0.22699,-0.426905 0.41385,-1.013697 0.41524,-1.303976 0.005,-1.154972 0.39594,-1.112276 0.9019,0.09864 0.39383,0.942587 0.31685,1.372267 -0.38381,2.142403 -0.34923,0.383851 -0.7117,0.839794 -0.80548,1.013204 -0.1656,0.306201 -0.17585,0.305325 -0.35554,-0.03042 z"
         id="path2208" /><path
         style="fill:#436711;fill-opacity:1;stroke-width:0.165083"
         d="m 113.68885,21.412868 c 0.60336,-1.07783 1.99218,-1.958942 3.08769,-1.958942 0.3678,0 0.63212,-0.168749 1.0753,-0.686501 0.70101,-0.829465 6.5964,-4.750243 7.30197,-3.028932 -1.52927,0.611917 -4.61397,1.248561 -6.6304,3.224916 l -0.78107,0.792993 c 0.24671,0.515624 0.57036,1.090384 0.64797,1.623676 -1.81235,-0.355581 -3.61403,0.07023 -5.03163,0.713078 -0.0285,0.0012 0.12006,-0.30498 0.33017,-0.680288 z"
         id="path2206" /><path
         id="path2204"
         style="fill:#ff9302;fill-opacity:1;stroke-width:0.165083"
         d="m 130.033,12.218194 c -0.52326,-0.03236 -1.83152,0.83308 -1.59835,1.860869 -0.47992,2.339435 -0.67995,3.010247 -3.19722,4.102592 -3.21378,1.606429 -6.41702,5.164328 -4.60023,8.948807 0.67543,1.306947 1.62107,2.128962 3.07164,2.670638 0.38104,0.142289 1.10511,0.203989 2.0004,0.171049 1.18064,-0.04343 1.54375,-0.128145 2.28926,-0.534334 1.3164,-0.717233 2.20339,-1.844241 3.44062,-4.371309 0.6001,-1.225737 1.32083,-2.562816 1.60145,-2.971395 0.68506,-1.004178 0.79591,-3.040441 0.25012,-4.12688 -0.9229,0.0563 -1.07529,1.856486 -1.71928,2.474268 -0.23657,0.207639 0.41718,-3.483455 0.42788,-5.321123 0.24098,-0.581777 0.14354,-0.6861 -0.40617,-0.435632 -1.17542,0.564509 -1.00575,2.706591 -1.69344,3.892786 -0.53216,0.928293 -0.78533,1.057593 -0.3421,0.174666 0.31093,-0.619266 0.35437,-0.995115 0.36587,-3.178617 0.009,-1.675624 0.0811,-2.60093 0.22376,-2.861841 0.17495,-0.331524 0.0906,-0.481881 -0.11421,-0.494544 z m -2.67322,7.583 c 0,0.323953 -0.39893,0.892041 -1.32705,1.889807 -0.8815,0.947707 -1.08012,1.402012 -0.8232,1.882056 0.63284,1.059927 2.36137,-0.33484 3.27473,-0.903821 -0.49356,1.77633 0.30714,3.297016 -1.27382,4.783171 -0.61175,0.316334 -1.45099,0.319974 -1.99626,0.0083 -0.70674,-0.405169 0.54105,-0.224356 1.02319,-0.545187 0.13582,-0.739327 -1.49923,-0.719106 -1.93993,-1.595251 -0.43131,-0.870588 0.16559,-2.082572 -0.0465,-2.894914 -0.63868,0.08414 -1.51319,2.310709 -1.83555,3.054077 -0.58225,-3.822563 1.66298,-3.913964 4.9444,-5.678206 z" /><path
         style="fill:#cb2025;fill-opacity:1;stroke-width:0.165083"
         d="m 121.82972,35.378613 c -8.26713,-2.018687 -8.80444,-10.086991 -8.49217,-12.725267 1.67964,-0.617786 3.69597,-1.155508 5.19052,-0.632583 -0.21398,5.211823 0.82986,7.864354 6.16424,9.098183 5.69392,1.089071 8.54131,-7.439135 9.27339,-6.627162 0.33216,0.400224 0.23945,2.939231 -0.1536,4.206738 -1.85618,5.14457 -7.50983,7.489878 -11.98235,6.680062 z"
         id="path2200" /><path
         style="fill:#b0020c;fill-opacity:1;stroke-width:0.144609"
         d="m 122.56159,35.450176 c -8.4434,-1.12997 -9.51199,-10.471423 -9.23845,-12.782487 1.75123,-0.482237 1.92852,-0.707698 1.8971,-0.131773 -0.18745,4.565427 1.04563,9.528992 7.37061,11.135494 8.36722,-0.247598 10.56106,-5.42755 11.39009,-8.996971 0.29097,0.350586 0.20976,2.762443 -0.13455,3.872747 -1.04414,4.211365 -6.79715,7.409461 -11.2848,6.90299 z"
         id="path2200-2"
         sodipodi:nodetypes="ccccccc" /><path
         style="fill:#ad020e;fill-opacity:1;stroke-width:0.165083"
         d="m 112.0482,33.229694 c -6.79267,-10.218032 2.23914,-24.7329362 13.84815,-21.981218 -11.93443,-0.144476 -20.78479,14.411207 -9.26087,23.94455 10.89181,5.653769 21.45186,-3.510973 20.70469,-14.493364 5.49876,15.568674 -17.29156,24.520964 -25.29197,12.530032 z"
         id="path306-1"
         sodipodi:nodetypes="ccccc" /></g></g></svg>
